<?xml version="1.0" encoding="UTF-8" standalone="no"?>
<!DOCTYPE svg PUBLIC "-//W3C//DTD SVG 1.1//EN" "http://www.w3.org/Graphics/SVG/1.1/DTD/svg11.dtd">
<svg width="100%" height="100%" viewBox="0 0 2047 222" version="1.1" xmlns="http://www.w3.org/2000/svg" xmlns:xlink="http://www.w3.org/1999/xlink" xml:space="preserve" xmlns:serif="http://www.serif.com/" style="fill-rule:evenodd;clip-rule:evenodd;stroke-linejoin:round;stroke-miterlimit:2;">
    <defs>
        <linearGradient id="logoGradient" x1="0%" y1="0%" x2="100%" y2="0%">
            <stop offset="0%" style="stop-color:#fb923c;stop-opacity:1">
                <animate attributeName="offset" values="-0.5;0.5;1.5" dur="0.4s" repeatCount="indefinite" />
            </stop>
            <stop offset="50%" style="stop-color:#f87171;stop-opacity:1">
                <animate attributeName="offset" values="0;1;2" dur="0.4s" repeatCount="indefinite" />
            </stop>
            <stop offset="100%" style="stop-color:#fb923c;stop-opacity:1">
                <animate attributeName="offset" values="0.5;1.5;2.5" dur="0.4s" repeatCount="indefinite" />
            </stop>
        </linearGradient>
    </defs>
    <g transform="matrix(1,0,0,1,-412.448,-666.095)">
        <g transform="matrix(1,0,0,1,-567.188,35.164)">
            <g transform="matrix(266.667,0,0,266.667,974.303,817.598)">
                <path d="M0.15,-0.543L0.59,-0L0.72,-0L0.72,-0.012L0.658,-0.012C0.627,-0.012 0.602,-0.023 0.602,-0.076L0.602,-0.622C0.602,-0.676 0.627,-0.687 0.658,-0.687L0.72,-0.687L0.72,-0.7L0.473,-0.7L0.473,-0.687L0.534,-0.687C0.565,-0.687 0.59,-0.676 0.59,-0.622L0.59,-0.157L0.15,-0.7L0.02,-0.7L0.02,-0.687L0.082,-0.687C0.113,-0.687 0.137,-0.676 0.137,-0.622L0.137,-0.076C0.137,-0.023 0.113,-0.012 0.082,-0.012L0.02,-0.012L0.02,-0L0.268,-0L0.268,-0.012L0.205,-0.012C0.174,-0.012 0.15,-0.023 0.15,-0.076L0.15,-0.543Z" style="fill:url(#logoGradient);filter:drop-shadow(0 0 15px rgba(251,146,60,0.4));fill-rule:nonzero;"/>
            </g>
            <g transform="matrix(175,0,0,175,1164.97,817.598)">
                <path d="M0.478,-0.516L0.535,-0.516L0.266,0.14C0.257,0.161 0.247,0.176 0.234,0.186C0.221,0.195 0.2,0.2 0.173,0.2L0.087,0.2L0.087,0.151L0.204,0.151L0.272,-0.014L0.065,-0.516L0.124,-0.516L0.299,-0.083L0.303,-0.083L0.478,-0.516Z" style="fill:url(#logoGradient);filter:drop-shadow(0 0 15px rgba(251,146,60,0.4));fill-rule:nonzero;"/>
            </g>
            <g transform="matrix(175,0,0,175,1265.59,817.598)">
                <path d="M0.436,-0.082L0.433,-0.082C0.418,-0.054 0.398,-0.031 0.372,-0.014C0.345,0.003 0.312,0.012 0.273,0.012C0.208,0.012 0.158,-0.011 0.122,-0.058C0.086,-0.104 0.068,-0.171 0.068,-0.258C0.068,-0.345 0.086,-0.412 0.122,-0.459C0.158,-0.505 0.208,-0.528 0.273,-0.528C0.312,-0.528 0.345,-0.519 0.372,-0.502C0.398,-0.485 0.418,-0.462 0.433,-0.434L0.436,-0.434L0.436,-0.74L0.493,-0.74L0.493,-0L0.436,-0L0.436,-0.082ZM0.292,-0.039C0.311,-0.039 0.33,-0.042 0.347,-0.047C0.364,-0.052 0.38,-0.06 0.393,-0.07C0.406,-0.08 0.417,-0.092 0.425,-0.107C0.432,-0.122 0.436,-0.138 0.436,-0.156L0.436,-0.36C0.436,-0.378 0.432,-0.394 0.425,-0.409C0.417,-0.424 0.406,-0.436 0.393,-0.446C0.38,-0.456 0.364,-0.464 0.347,-0.469C0.33,-0.474 0.311,-0.477 0.292,-0.477C0.24,-0.477 0.2,-0.461 0.172,-0.428C0.143,-0.395 0.129,-0.351 0.129,-0.294L0.129,-0.222C0.129,-0.165 0.143,-0.121 0.172,-0.088C0.2,-0.055 0.24,-0.039 0.292,-0.039Z" style="fill:url(#logoGradient);filter:drop-shadow(0 0 15px rgba(251,146,60,0.4));fill-rule:nonzero;"/>
            </g>
            <g transform="matrix(175,0,0,175,1366.22,817.598)">
                <path d="M0.332,-0.654C0.314,-0.654 0.301,-0.658 0.294,-0.666C0.286,-0.673 0.282,-0.683 0.282,-0.694L0.282,-0.707C0.282,-0.718 0.286,-0.728 0.294,-0.736C0.301,-0.743 0.314,-0.747 0.332,-0.747C0.35,-0.747 0.363,-0.743 0.371,-0.736C0.378,-0.728 0.382,-0.718 0.382,-0.707L0.382,-0.694C0.382,-0.683 0.378,-0.673 0.371,-0.666C0.363,-0.658 0.35,-0.654 0.332,-0.654ZM0.11,-0.049L0.304,-0.049L0.304,-0.467L0.11,-0.467L0.11,-0.516L0.361,-0.516L0.361,-0.049L0.542,-0.049L0.542,-0L0.11,-0L0.11,-0.049Z" style="fill:url(#logoGradient);filter:drop-shadow(0 0 15px rgba(251,146,60,0.4));fill-rule:nonzero;"/>
            </g>
            <g transform="matrix(175,0,0,175,1466.84,817.598)">
                <path d="M0.479,-0C0.456,-0 0.439,-0.006 0.429,-0.017C0.419,-0.028 0.413,-0.044 0.412,-0.063L0.412,-0.081L0.407,-0.081C0.396,-0.054 0.377,-0.031 0.351,-0.014C0.325,0.003 0.29,0.012 0.245,0.012C0.191,0.012 0.149,-0.001 0.118,-0.028C0.087,-0.054 0.071,-0.091 0.071,-0.139C0.071,-0.162 0.075,-0.182 0.083,-0.201C0.09,-0.219 0.102,-0.234 0.12,-0.247C0.136,-0.26 0.158,-0.27 0.185,-0.277C0.212,-0.284 0.244,-0.287 0.283,-0.287L0.409,-0.287L0.409,-0.35C0.409,-0.393 0.397,-0.426 0.374,-0.447C0.35,-0.468 0.317,-0.479 0.275,-0.479C0.204,-0.479 0.155,-0.451 0.127,-0.394L0.088,-0.422C0.101,-0.452 0.124,-0.477 0.156,-0.498C0.187,-0.518 0.228,-0.528 0.278,-0.528C0.337,-0.528 0.383,-0.513 0.416,-0.483C0.449,-0.452 0.466,-0.41 0.466,-0.356L0.466,-0.05L0.543,-0.05L0.543,-0L0.479,-0ZM0.254,-0.036C0.276,-0.036 0.296,-0.039 0.315,-0.044C0.334,-0.049 0.35,-0.057 0.364,-0.067C0.378,-0.076 0.389,-0.088 0.397,-0.102C0.405,-0.116 0.409,-0.132 0.409,-0.149L0.409,-0.244L0.283,-0.244C0.229,-0.244 0.19,-0.236 0.167,-0.22C0.143,-0.203 0.131,-0.181 0.131,-0.153L0.131,-0.127C0.131,-0.097 0.142,-0.074 0.165,-0.059C0.187,-0.044 0.217,-0.036 0.254,-0.036Z" style="fill:url(#logoGradient);filter:drop-shadow(0 0 15px rgba(251,146,60,0.4));fill-rule:nonzero;"/>
            </g>
            <!-- :P -->
            <g transform="matrix(175,0,0,175,1567.47,817.598)">
                <path d="M0.3,0.007C0.279,0.007 0.264,0.003 0.255,-0.006C0.246,-0.015 0.242,-0.026 0.242,-0.04L0.242,-0.054C0.242,-0.067 0.246,-0.079 0.255,-0.088C0.264,-0.097 0.279,-0.101 0.3,-0.101C0.321,-0.101 0.336,-0.097 0.345,-0.088C0.354,-0.079 0.358,-0.067 0.358,-0.054L0.358,-0.04C0.358,-0.026 0.354,-0.015 0.345,-0.006C0.336,0.003 0.321,0.007 0.3,0.007ZM0.3,-0.416C0.279,-0.416 0.264,-0.42 0.255,-0.429C0.246,-0.438 0.242,-0.449 0.242,-0.463L0.242,-0.477C0.242,-0.49 0.246,-0.502 0.255,-0.511C0.264,-0.52 0.279,-0.524 0.3,-0.524C0.321,-0.524 0.336,-0.52 0.345,-0.511C0.354,-0.502 0.358,-0.49 0.358,-0.477L0.358,-0.463C0.358,-0.449 0.354,-0.438 0.345,-0.429C0.336,-0.42 0.321,-0.416 0.3,-0.416Z" style="fill-rule:nonzero;" fill="currentColor"/>
            </g>
            <g transform="matrix(175,0,0,175,1668.09,817.598)">
                <path d="M0.097,-0L0.097,-0.698L0.347,-0.698C0.409,-0.698 0.456,-0.681 0.488,-0.646C0.52,-0.61 0.536,-0.563 0.536,-0.502C0.536,-0.441 0.52,-0.394 0.488,-0.359C0.456,-0.323 0.409,-0.306 0.347,-0.306L0.157,-0.306L0.157,-0L0.097,-0ZM0.157,-0.358L0.346,-0.358C0.388,-0.358 0.42,-0.369 0.441,-0.392C0.462,-0.415 0.473,-0.443 0.473,-0.478L0.473,-0.526C0.473,-0.561 0.462,-0.589 0.441,-0.612C0.42,-0.635 0.388,-0.646 0.346,-0.646L0.157,-0.646L0.157,-0.358Z" style="fill-rule:nonzero;" fill="currentColor"/>
            </g>
            <g transform="matrix(175,0,0,175,1768.72,817.598)">
                <path d="M0.479,-0C0.456,-0 0.439,-0.006 0.429,-0.017C0.419,-0.028 0.413,-0.044 0.412,-0.063L0.412,-0.081L0.407,-0.081C0.396,-0.054 0.377,-0.031 0.351,-0.014C0.325,0.003 0.29,0.012 0.245,0.012C0.191,0.012 0.149,-0.001 0.118,-0.028C0.087,-0.054 0.071,-0.091 0.071,-0.139C0.071,-0.162 0.075,-0.182 0.083,-0.201C0.09,-0.219 0.102,-0.234 0.12,-0.247C0.136,-0.26 0.158,-0.27 0.185,-0.277C0.212,-0.284 0.244,-0.287 0.283,-0.287L0.409,-0.287L0.409,-0.35C0.409,-0.393 0.397,-0.426 0.374,-0.447C0.35,-0.468 0.317,-0.479 0.275,-0.479C0.204,-0.479 0.155,-0.451 0.127,-0.394L0.088,-0.422C0.101,-0.452 0.124,-0.477 0.156,-0.498C0.187,-0.518 0.228,-0.528 0.278,-0.528C0.337,-0.528 0.383,-0.513 0.416,-0.483C0.449,-0.452 0.466,-0.41 0.466,-0.356L0.466,-0.05L0.543,-0.05L0.543,-0L0.479,-0ZM0.254,-0.036C0.276,-0.036 0.296,-0.039 0.315,-0.044C0.334,-0.049 0.35,-0.057 0.364,-0.067C0.378,-0.076 0.389,-0.088 0.397,-0.102C0.405,-0.116 0.409,-0.132 0.409,-0.149L0.409,-0.244L0.283,-0.244C0.229,-0.244 0.19,-0.236 0.167,-0.22C0.143,-0.203 0.131,-0.181 0.131,-0.153L0.131,-0.127C0.131,-0.097 0.142,-0.074 0.165,-0.059C0.187,-0.044 0.217,-0.036 0.254,-0.036Z" style="fill-rule:nonzero;" fill="currentColor"/>
            </g>
            <g transform="matrix(175,0,0,175,1869.34,817.598)">
                <path d="M0.311,0.012C0.259,0.012 0.214,0.003 0.176,-0.015C0.137,-0.032 0.104,-0.057 0.076,-0.089L0.115,-0.123C0.14,-0.094 0.169,-0.072 0.2,-0.058C0.231,-0.043 0.269,-0.036 0.312,-0.036C0.357,-0.036 0.394,-0.045 0.423,-0.062C0.451,-0.079 0.465,-0.106 0.465,-0.142C0.465,-0.158 0.462,-0.171 0.457,-0.182C0.451,-0.192 0.443,-0.2 0.433,-0.207C0.423,-0.214 0.411,-0.219 0.398,-0.223C0.385,-0.226 0.37,-0.229 0.354,-0.231L0.274,-0.242C0.254,-0.245 0.234,-0.249 0.214,-0.254C0.193,-0.259 0.175,-0.266 0.159,-0.276C0.142,-0.286 0.129,-0.299 0.119,-0.316C0.108,-0.333 0.103,-0.354 0.103,-0.38C0.103,-0.405 0.108,-0.427 0.118,-0.446C0.128,-0.465 0.142,-0.48 0.16,-0.492C0.178,-0.504 0.199,-0.513 0.224,-0.519C0.248,-0.525 0.274,-0.528 0.302,-0.528C0.35,-0.528 0.391,-0.52 0.424,-0.505C0.456,-0.489 0.484,-0.469 0.507,-0.446L0.469,-0.41C0.462,-0.418 0.453,-0.426 0.444,-0.435C0.434,-0.443 0.422,-0.45 0.409,-0.457C0.395,-0.464 0.379,-0.469 0.361,-0.474C0.343,-0.478 0.322,-0.48 0.299,-0.48C0.255,-0.48 0.221,-0.472 0.197,-0.456C0.172,-0.44 0.16,-0.416 0.16,-0.384C0.16,-0.368 0.163,-0.355 0.169,-0.345C0.174,-0.334 0.182,-0.326 0.192,-0.319C0.202,-0.312 0.214,-0.307 0.227,-0.304C0.24,-0.3 0.255,-0.297 0.27,-0.295L0.351,-0.283C0.371,-0.28 0.391,-0.276 0.412,-0.271C0.432,-0.266 0.45,-0.258 0.467,-0.248C0.483,-0.238 0.496,-0.225 0.506,-0.209C0.516,-0.192 0.521,-0.171 0.521,-0.145C0.521,-0.119 0.516,-0.096 0.506,-0.077C0.495,-0.058 0.481,-0.041 0.463,-0.028C0.444,-0.015 0.422,-0.005 0.396,0.002C0.37,0.009 0.342,0.012 0.311,0.012Z" style="fill-rule:nonzero;" fill="currentColor"/>
            </g>
            <g transform="matrix(175,0,0,175,1969.97,817.598)">
                <path d="M0.311,0.012C0.259,0.012 0.214,0.003 0.176,-0.015C0.137,-0.032 0.104,-0.057 0.076,-0.089L0.115,-0.123C0.14,-0.094 0.169,-0.072 0.2,-0.058C0.231,-0.043 0.269,-0.036 0.312,-0.036C0.357,-0.036 0.394,-0.045 0.423,-0.062C0.451,-0.079 0.465,-0.106 0.465,-0.142C0.465,-0.158 0.462,-0.171 0.457,-0.182C0.451,-0.192 0.443,-0.2 0.433,-0.207C0.423,-0.214 0.411,-0.219 0.398,-0.223C0.385,-0.226 0.37,-0.229 0.354,-0.231L0.274,-0.242C0.254,-0.245 0.234,-0.249 0.214,-0.254C0.193,-0.259 0.175,-0.266 0.159,-0.276C0.142,-0.286 0.129,-0.299 0.119,-0.316C0.108,-0.333 0.103,-0.354 0.103,-0.38C0.103,-0.405 0.108,-0.427 0.118,-0.446C0.128,-0.465 0.142,-0.48 0.16,-0.492C0.178,-0.504 0.199,-0.513 0.224,-0.519C0.248,-0.525 0.274,-0.528 0.302,-0.528C0.35,-0.528 0.391,-0.52 0.424,-0.505C0.456,-0.489 0.484,-0.469 0.507,-0.446L0.469,-0.41C0.462,-0.418 0.453,-0.426 0.444,-0.435C0.434,-0.443 0.422,-0.45 0.409,-0.457C0.395,-0.464 0.379,-0.469 0.361,-0.474C0.343,-0.478 0.322,-0.48 0.299,-0.48C0.255,-0.48 0.221,-0.472 0.197,-0.456C0.172,-0.44 0.16,-0.416 0.16,-0.384C0.16,-0.368 0.163,-0.355 0.169,-0.345C0.174,-0.334 0.182,-0.326 0.192,-0.319C0.202,-0.312 0.214,-0.307 0.227,-0.304C0.24,-0.3 0.255,-0.297 0.27,-0.295L0.351,-0.283C0.371,-0.28 0.391,-0.276 0.412,-0.271C0.432,-0.266 0.45,-0.258 0.467,-0.248C0.483,-0.238 0.496,-0.225 0.506,-0.209C0.516,-0.192 0.521,-0.171 0.521,-0.145C0.521,-0.119 0.516,-0.096 0.506,-0.077C0.495,-0.058 0.481,-0.041 0.463,-0.028C0.444,-0.015 0.422,-0.005 0.396,0.002C0.37,0.009 0.342,0.012 0.311,0.012Z" style="fill-rule:nonzero;" fill="currentColor"/>
            </g>
            <g transform="matrix(175,0,0,175,2070.59,817.598)">
                <path d="M0.118,-0.74L0.175,-0.74L0.175,-0.252L0.179,-0.252L0.28,-0.344L0.472,-0.516L0.543,-0.516L0.322,-0.314L0.569,-0L0.498,-0L0.278,-0.28L0.175,-0.189L0.175,-0L0.118,-0L0.118,-0.74Z" style="fill-rule:nonzero;" fill="currentColor"/>
            </g>
            <g transform="matrix(175,0,0,175,2171.22,817.598)">
                <path d="M0.308,0.012C0.236,0.012 0.18,-0.012 0.139,-0.059C0.097,-0.106 0.077,-0.172 0.077,-0.257C0.077,-0.3 0.082,-0.338 0.093,-0.372C0.104,-0.405 0.119,-0.434 0.139,-0.457C0.158,-0.48 0.182,-0.497 0.21,-0.51C0.238,-0.522 0.269,-0.528 0.303,-0.528C0.338,-0.528 0.369,-0.522 0.396,-0.51C0.423,-0.497 0.447,-0.48 0.466,-0.457C0.485,-0.434 0.499,-0.407 0.509,-0.376C0.519,-0.345 0.524,-0.31 0.524,-0.272L0.524,-0.247L0.137,-0.247L0.137,-0.222C0.137,-0.167 0.152,-0.122 0.182,-0.089C0.212,-0.055 0.254,-0.038 0.308,-0.038C0.346,-0.038 0.379,-0.047 0.406,-0.064C0.433,-0.081 0.453,-0.107 0.468,-0.141L0.511,-0.114C0.496,-0.076 0.471,-0.046 0.436,-0.023C0.401,0.001 0.359,0.012 0.308,0.012ZM0.303,-0.48C0.278,-0.48 0.255,-0.475 0.235,-0.467C0.214,-0.458 0.197,-0.445 0.183,-0.429C0.168,-0.413 0.157,-0.394 0.149,-0.371C0.141,-0.348 0.137,-0.323 0.137,-0.296L0.137,-0.29L0.463,-0.29L0.463,-0.298C0.463,-0.354 0.449,-0.398 0.421,-0.431C0.392,-0.464 0.353,-0.48 0.303,-0.48Z" style="fill-rule:nonzero;" fill="currentColor"/>
            </g>
            <g transform="matrix(175,0,0,175,2271.84,817.598)">
                <path d="M0.478,-0.516L0.535,-0.516L0.266,0.14C0.257,0.161 0.247,0.176 0.234,0.186C0.221,0.195 0.2,0.2 0.173,0.2L0.087,0.2L0.087,0.151L0.204,0.151L0.272,-0.014L0.065,-0.516L0.124,-0.516L0.299,-0.083L0.303,-0.083L0.478,-0.516Z" style="fill-rule:nonzero;" fill="currentColor"/>
            </g>
            <g transform="matrix(175,0,0,175,2424.97,817.598)">
                <path d="M0.453,-0.328L0.147,-0.328L0.147,-0L0.087,-0L0.087,-0.698L0.147,-0.698L0.147,-0.38L0.453,-0.38L0.453,-0.698L0.513,-0.698L0.513,-0L0.453,-0L0.453,-0.328Z" style="fill-rule:nonzero;" fill="currentColor"/>
            </g>
            <g transform="matrix(175,0,0,175,2525.59,817.598)">
                <path d="M0.3,0.012C0.229,0.012 0.174,-0.012 0.135,-0.059C0.095,-0.106 0.075,-0.173 0.075,-0.258C0.075,-0.343 0.095,-0.41 0.135,-0.457C0.174,-0.504 0.229,-0.528 0.3,-0.528C0.371,-0.528 0.426,-0.504 0.466,-0.457C0.505,-0.41 0.525,-0.343 0.525,-0.258C0.525,-0.173 0.505,-0.106 0.466,-0.059C0.426,-0.012 0.371,0.012 0.3,0.012ZM0.3,-0.038C0.351,-0.038 0.391,-0.054 0.42,-0.086C0.449,-0.118 0.464,-0.165 0.464,-0.226L0.464,-0.29C0.464,-0.351 0.449,-0.398 0.42,-0.43C0.391,-0.462 0.351,-0.478 0.3,-0.478C0.249,-0.478 0.209,-0.462 0.18,-0.43C0.151,-0.398 0.136,-0.351 0.136,-0.29L0.136,-0.226C0.136,-0.165 0.151,-0.118 0.18,-0.086C0.209,-0.054 0.249,-0.038 0.3,-0.038Z" style="fill-rule:nonzero;" fill="currentColor"/>
            </g>
            <g transform="matrix(175,0,0,175,2626.22,817.598)">
                <path d="M0.084,-0.049L0.272,-0.049L0.272,-0.691L0.084,-0.691L0.084,-0.74L0.329,-0.74L0.329,-0.049L0.516,-0.049L0.516,-0L0.084,-0L0.084,-0.049Z" style="fill-rule:nonzero;" fill="currentColor"/>
            </g>
            <g transform="matrix(175,0,0,175,2726.84,817.598)">
                <path d="M0.436,-0.082L0.433,-0.082C0.418,-0.054 0.398,-0.031 0.372,-0.014C0.345,0.003 0.312,0.012 0.273,0.012C0.208,0.012 0.158,-0.011 0.122,-0.058C0.086,-0.104 0.068,-0.171 0.068,-0.258C0.068,-0.345 0.086,-0.412 0.122,-0.459C0.158,-0.505 0.208,-0.528 0.273,-0.528C0.312,-0.528 0.345,-0.519 0.372,-0.502C0.398,-0.485 0.418,-0.462 0.433,-0.434L0.436,-0.434L0.436,-0.74L0.493,-0.74L0.493,-0L0.436,-0L0.436,-0.082ZM0.292,-0.039C0.311,-0.039 0.33,-0.042 0.347,-0.047C0.364,-0.052 0.38,-0.06 0.393,-0.07C0.406,-0.08 0.417,-0.092 0.425,-0.107C0.432,-0.122 0.436,-0.138 0.436,-0.156L0.436,-0.36C0.436,-0.378 0.432,-0.394 0.425,-0.409C0.417,-0.424 0.406,-0.436 0.393,-0.446C0.38,-0.456 0.364,-0.464 0.347,-0.469C0.33,-0.474 0.311,-0.477 0.292,-0.477C0.24,-0.477 0.2,-0.461 0.172,-0.428C0.143,-0.395 0.129,-0.351 0.129,-0.294L0.129,-0.222C0.129,-0.165 0.143,-0.121 0.172,-0.088C0.2,-0.055 0.24,-0.039 0.292,-0.039Z" style="fill-rule:nonzero;" fill="currentColor"/>
            </g>
            <g transform="matrix(175,0,0,175,2827.47,817.598)">
                <path d="M0.308,0.012C0.236,0.012 0.18,-0.012 0.139,-0.059C0.097,-0.106 0.077,-0.172 0.077,-0.257C0.077,-0.3 0.082,-0.338 0.093,-0.372C0.104,-0.405 0.119,-0.434 0.139,-0.457C0.158,-0.48 0.182,-0.497 0.21,-0.51C0.238,-0.522 0.269,-0.528 0.303,-0.528C0.338,-0.528 0.369,-0.522 0.396,-0.51C0.423,-0.497 0.447,-0.48 0.466,-0.457C0.485,-0.434 0.499,-0.407 0.509,-0.376C0.519,-0.345 0.524,-0.31 0.524,-0.272L0.524,-0.247L0.137,-0.247L0.137,-0.222C0.137,-0.167 0.152,-0.122 0.182,-0.089C0.212,-0.055 0.254,-0.038 0.308,-0.038C0.346,-0.038 0.379,-0.047 0.406,-0.064C0.433,-0.081 0.453,-0.107 0.468,-0.141L0.511,-0.114C0.496,-0.076 0.471,-0.046 0.436,-0.023C0.401,0.001 0.359,0.012 0.308,0.012ZM0.303,-0.48C0.278,-0.48 0.255,-0.475 0.235,-0.467C0.214,-0.458 0.197,-0.445 0.183,-0.429C0.168,-0.413 0.157,-0.394 0.149,-0.371C0.141,-0.348 0.137,-0.323 0.137,-0.296L0.137,-0.29L0.463,-0.29L0.463,-0.298C0.463,-0.354 0.449,-0.398 0.421,-0.431C0.392,-0.464 0.353,-0.48 0.303,-0.48Z" style="fill-rule:nonzero;" fill="currentColor"/>
            </g>
            <g transform="matrix(175,0,0,175,2928.09,817.598)">
                <path d="M0.078,-0.049L0.24,-0.049L0.24,-0.467L0.078,-0.467L0.078,-0.516L0.297,-0.516L0.297,-0.398L0.301,-0.398C0.312,-0.434 0.332,-0.463 0.36,-0.484C0.387,-0.505 0.424,-0.516 0.469,-0.516L0.558,-0.516L0.558,-0.46L0.452,-0.46C0.405,-0.46 0.368,-0.446 0.34,-0.419C0.311,-0.391 0.297,-0.354 0.297,-0.307L0.297,-0.049L0.507,-0.049L0.507,-0L0.078,-0L0.078,-0.049Z" style="fill-rule:nonzero;" fill="currentColor"/>
            </g>
        </g>
    </g>
</svg>
