<svg class="icon sia" width="100%" height="100%" viewBox="0 0 10956 10954" version="1.1" xmlns="http://www.w3.org/2000/svg" xmlns:xlink="http://www.w3.org/1999/xlink" xml:space="preserve" style="fill-rule:evenodd;clip-rule:evenodd;stroke-linejoin:round;stroke-miterlimit:2;">
    <rect id="Layer_2_1_" x="-1468.28" y="-1466.71" width="13888.9" height="13888.9" style="fill:none;fill-rule:nonzero;"/>
    
    <g id="Layer_3">
      <path class="inner-logo" d="M7120.04,5477.74l-0,1643.88l-1643.88,0c-908.745,0 -1643.88,-735.134 -1643.88,-1643.88c0,-908.746 735.135,-1643.88 1643.88,-1643.88c908.746,-0 1643.88,735.134 1643.88,1643.88m-1622.18,-2739.8c-1513.67,-46.116 -2775.07,1144.75 -2821.18,2655.71c-46.115,1513.67 1144.75,2775.07 2655.71,2821.18c48.828,2.712 94.943,2.712 143.771,-0l2739.8,-0l-0,-2704.54c-0,-1508.25 -1207.14,-2761.5 -2718.1,-2772.35" style="fill:currentColor;fill-rule:nonzero;"/>
      
      <path d="M9349.86,1604.04c-1874.46,-1874.46 -4768.88,-2105.03 -6895.62,-697.157c62.391,67.817 113.932,143.772 157.335,225.152c2018.23,-1331.92 4768.88,-1109.48 6545.68,664.605c2029.08,2029.08 2029.08,5330.4 0,7359.48c-2029.08,2029.08 -5330.4,2029.08 -7359.48,-0c-1776.8,-1776.8 -1996.53,-4524.74 -664.605,-6545.68c-81.38,-43.403 -157.335,-94.943 -225.152,-157.335c-1410.59,2126.74 -1177.3,5021.16 697.157,6895.62c2140.3,2140.3 5607.1,2140.3 7747.4,0c2140.3,-2140.3 2134.87,-5604.38 -2.713,-7744.68" style="fill:currentColor;fill-rule:nonzero;"/>
      
      <path d="M1255.24,1256.82c214.301,-214.301 561.524,-214.301 775.825,-0c214.301,214.301 214.301,561.523 -0,775.825c-214.301,214.301 -561.524,214.301 -773.112,-0c-217.014,-217.014 -217.014,-561.524 -2.713,-775.825" style="fill:currentColor;fill-rule:nonzero;"/>
    </g>
  </svg>
