<?xml version="1.0" encoding="UTF-8" standalone="no"?>
<!DOCTYPE svg PUBLIC "-//W3C//DTD SVG 1.1//EN" "http://www.w3.org/Graphics/SVG/1.1/DTD/svg11.dtd">
<svg width="100%" height="100%" viewBox="0 0 3243 339" version="1.1" xmlns="http://www.w3.org/2000/svg" xmlns:xlink="http://www.w3.org/1999/xlink" xml:space="preserve" xmlns:serif="http://www.serif.com/" style="fill-rule:evenodd;clip-rule:evenodd;stroke-linejoin:round;stroke-miterlimit:1;">
    <g transform="matrix(1.33333,0,0,1.33333,-712.459,-1483.68)">
        <g transform="matrix(1.0417,0,0,1.03821,-486.145,457.723)">
            <g transform="matrix(266.667,0,0,266.667,974.303,817.598)">
                <path d="M0.15,-0.543L0.59,-0L0.72,-0L0.72,-0.012L0.658,-0.012C0.627,-0.012 0.602,-0.023 0.602,-0.076L0.602,-0.622C0.602,-0.676 0.627,-0.687 0.658,-0.687L0.72,-0.687L0.72,-0.7L0.473,-0.7L0.473,-0.687L0.534,-0.687C0.565,-0.687 0.59,-0.676 0.59,-0.622L0.59,-0.157L0.15,-0.7L0.02,-0.7L0.02,-0.687L0.082,-0.687C0.113,-0.687 0.137,-0.676 0.137,-0.622L0.137,-0.076C0.137,-0.023 0.113,-0.012 0.082,-0.012L0.02,-0.012L0.02,-0L0.268,-0L0.268,-0.012L0.205,-0.012C0.174,-0.012 0.15,-0.023 0.15,-0.076L0.15,-0.543Z" style="fill:white;fill-rule:nonzero;"/>
            </g>
            <g transform="matrix(175,0,0,175,1164.97,817.598)">
                <path d="M0.478,-0.516L0.535,-0.516L0.266,0.14C0.257,0.161 0.247,0.176 0.234,0.186C0.221,0.195 0.2,0.2 0.173,0.2L0.087,0.2L0.087,0.151L0.204,0.151L0.272,-0.014L0.065,-0.516L0.124,-0.516L0.299,-0.083L0.303,-0.083L0.478,-0.516Z" style="fill:white;fill-rule:nonzero;"/>
            </g>
            <g transform="matrix(175,0,0,175,1265.59,817.598)">
                <path d="M0.436,-0.082L0.433,-0.082C0.418,-0.054 0.398,-0.031 0.372,-0.014C0.345,0.003 0.312,0.012 0.273,0.012C0.208,0.012 0.158,-0.011 0.122,-0.058C0.086,-0.104 0.068,-0.171 0.068,-0.258C0.068,-0.345 0.086,-0.412 0.122,-0.459C0.158,-0.505 0.208,-0.528 0.273,-0.528C0.312,-0.528 0.345,-0.519 0.372,-0.502C0.398,-0.485 0.418,-0.462 0.433,-0.434L0.436,-0.434L0.436,-0.74L0.493,-0.74L0.493,-0L0.436,-0L0.436,-0.082ZM0.292,-0.039C0.311,-0.039 0.33,-0.042 0.347,-0.047C0.364,-0.052 0.38,-0.06 0.393,-0.07C0.406,-0.08 0.417,-0.092 0.425,-0.107C0.432,-0.122 0.436,-0.138 0.436,-0.156L0.436,-0.36C0.436,-0.378 0.432,-0.394 0.425,-0.409C0.417,-0.424 0.406,-0.436 0.393,-0.446C0.38,-0.456 0.364,-0.464 0.347,-0.469C0.33,-0.474 0.311,-0.477 0.292,-0.477C0.24,-0.477 0.2,-0.461 0.172,-0.428C0.143,-0.395 0.129,-0.351 0.129,-0.294L0.129,-0.222C0.129,-0.165 0.143,-0.121 0.172,-0.088C0.2,-0.055 0.24,-0.039 0.292,-0.039Z" style="fill:white;fill-rule:nonzero;"/>
            </g>
            <g transform="matrix(175,0,0,175,1366.22,817.598)">
                <path d="M0.332,-0.654C0.314,-0.654 0.301,-0.658 0.294,-0.666C0.286,-0.673 0.282,-0.683 0.282,-0.694L0.282,-0.707C0.282,-0.718 0.286,-0.728 0.294,-0.736C0.301,-0.743 0.314,-0.747 0.332,-0.747C0.35,-0.747 0.363,-0.743 0.371,-0.736C0.378,-0.728 0.382,-0.718 0.382,-0.707L0.382,-0.694C0.382,-0.683 0.378,-0.673 0.371,-0.666C0.363,-0.658 0.35,-0.654 0.332,-0.654ZM0.11,-0.049L0.304,-0.049L0.304,-0.467L0.11,-0.467L0.11,-0.516L0.361,-0.516L0.361,-0.049L0.542,-0.049L0.542,-0L0.11,-0L0.11,-0.049Z" style="fill:white;fill-rule:nonzero;"/>
            </g>
            <g transform="matrix(175,0,0,175,1466.84,817.598)">
                <path d="M0.479,-0C0.456,-0 0.439,-0.006 0.429,-0.017C0.419,-0.028 0.413,-0.044 0.412,-0.063L0.412,-0.081L0.407,-0.081C0.396,-0.054 0.377,-0.031 0.351,-0.014C0.325,0.003 0.29,0.012 0.245,0.012C0.191,0.012 0.149,-0.001 0.118,-0.028C0.087,-0.054 0.071,-0.091 0.071,-0.139C0.071,-0.162 0.075,-0.182 0.083,-0.201C0.09,-0.219 0.102,-0.234 0.12,-0.247C0.136,-0.26 0.158,-0.27 0.185,-0.277C0.212,-0.284 0.244,-0.287 0.283,-0.287L0.409,-0.287L0.409,-0.35C0.409,-0.393 0.397,-0.426 0.374,-0.447C0.35,-0.468 0.317,-0.479 0.275,-0.479C0.204,-0.479 0.155,-0.451 0.127,-0.394L0.088,-0.422C0.101,-0.452 0.124,-0.477 0.156,-0.498C0.187,-0.518 0.228,-0.528 0.278,-0.528C0.337,-0.528 0.383,-0.513 0.416,-0.483C0.449,-0.452 0.466,-0.41 0.466,-0.356L0.466,-0.05L0.543,-0.05L0.543,-0L0.479,-0ZM0.254,-0.036C0.276,-0.036 0.296,-0.039 0.315,-0.044C0.334,-0.049 0.35,-0.057 0.364,-0.067C0.378,-0.076 0.389,-0.088 0.397,-0.102C0.405,-0.116 0.409,-0.132 0.409,-0.149L0.409,-0.244L0.283,-0.244C0.229,-0.244 0.19,-0.236 0.167,-0.22C0.143,-0.203 0.131,-0.181 0.131,-0.153L0.131,-0.127C0.131,-0.097 0.142,-0.074 0.165,-0.059C0.187,-0.044 0.217,-0.036 0.254,-0.036Z" style="fill:white;fill-rule:nonzero;"/>
            </g>
            <g transform="matrix(175,0,0,175,1567.47,817.598)">
                <path d="M0.3,0.007C0.279,0.007 0.264,0.003 0.255,-0.006C0.246,-0.015 0.242,-0.026 0.242,-0.04L0.242,-0.054C0.242,-0.067 0.246,-0.079 0.255,-0.088C0.264,-0.097 0.279,-0.101 0.3,-0.101C0.321,-0.101 0.336,-0.097 0.345,-0.088C0.354,-0.079 0.358,-0.067 0.358,-0.054L0.358,-0.04C0.358,-0.026 0.354,-0.015 0.345,-0.006C0.336,0.003 0.321,0.007 0.3,0.007ZM0.3,-0.416C0.279,-0.416 0.264,-0.42 0.255,-0.429C0.246,-0.438 0.242,-0.449 0.242,-0.463L0.242,-0.477C0.242,-0.49 0.246,-0.502 0.255,-0.511C0.264,-0.52 0.279,-0.524 0.3,-0.524C0.321,-0.524 0.336,-0.52 0.345,-0.511C0.354,-0.502 0.358,-0.49 0.358,-0.477L0.358,-0.463C0.358,-0.449 0.354,-0.438 0.345,-0.429C0.336,-0.42 0.321,-0.416 0.3,-0.416Z" style="fill:white;fill-rule:nonzero;"/>
            </g>
            <g transform="matrix(175,0,0,175,1668.09,817.598)">
                <path d="M0.097,-0L0.097,-0.698L0.347,-0.698C0.409,-0.698 0.456,-0.681 0.488,-0.646C0.52,-0.61 0.536,-0.563 0.536,-0.502C0.536,-0.441 0.52,-0.394 0.488,-0.359C0.456,-0.323 0.409,-0.306 0.347,-0.306L0.157,-0.306L0.157,-0L0.097,-0ZM0.157,-0.358L0.346,-0.358C0.388,-0.358 0.42,-0.369 0.441,-0.392C0.462,-0.415 0.473,-0.443 0.473,-0.478L0.473,-0.526C0.473,-0.561 0.462,-0.589 0.441,-0.612C0.42,-0.635 0.388,-0.646 0.346,-0.646L0.157,-0.646L0.157,-0.358Z" style="fill:white;fill-rule:nonzero;"/>
            </g>
            <g transform="matrix(175,0,0,175,1768.72,817.598)">
                <path d="M0.479,-0C0.456,-0 0.439,-0.006 0.429,-0.017C0.419,-0.028 0.413,-0.044 0.412,-0.063L0.412,-0.081L0.407,-0.081C0.396,-0.054 0.377,-0.031 0.351,-0.014C0.325,0.003 0.29,0.012 0.245,0.012C0.191,0.012 0.149,-0.001 0.118,-0.028C0.087,-0.054 0.071,-0.091 0.071,-0.139C0.071,-0.162 0.075,-0.182 0.083,-0.201C0.09,-0.219 0.102,-0.234 0.12,-0.247C0.136,-0.26 0.158,-0.27 0.185,-0.277C0.212,-0.284 0.244,-0.287 0.283,-0.287L0.409,-0.287L0.409,-0.35C0.409,-0.393 0.397,-0.426 0.374,-0.447C0.35,-0.468 0.317,-0.479 0.275,-0.479C0.204,-0.479 0.155,-0.451 0.127,-0.394L0.088,-0.422C0.101,-0.452 0.124,-0.477 0.156,-0.498C0.187,-0.518 0.228,-0.528 0.278,-0.528C0.337,-0.528 0.383,-0.513 0.416,-0.483C0.449,-0.452 0.466,-0.41 0.466,-0.356L0.466,-0.05L0.543,-0.05L0.543,-0L0.479,-0ZM0.254,-0.036C0.276,-0.036 0.296,-0.039 0.315,-0.044C0.334,-0.049 0.35,-0.057 0.364,-0.067C0.378,-0.076 0.389,-0.088 0.397,-0.102C0.405,-0.116 0.409,-0.132 0.409,-0.149L0.409,-0.244L0.283,-0.244C0.229,-0.244 0.19,-0.236 0.167,-0.22C0.143,-0.203 0.131,-0.181 0.131,-0.153L0.131,-0.127C0.131,-0.097 0.142,-0.074 0.165,-0.059C0.187,-0.044 0.217,-0.036 0.254,-0.036Z" style="fill:white;fill-rule:nonzero;"/>
            </g>
            <g transform="matrix(175,0,0,175,1869.34,817.598)">
                <path d="M0.311,0.012C0.259,0.012 0.214,0.003 0.176,-0.015C0.137,-0.032 0.104,-0.057 0.076,-0.089L0.115,-0.123C0.14,-0.094 0.169,-0.072 0.2,-0.058C0.231,-0.043 0.269,-0.036 0.312,-0.036C0.357,-0.036 0.394,-0.045 0.423,-0.062C0.451,-0.079 0.465,-0.106 0.465,-0.142C0.465,-0.158 0.462,-0.171 0.457,-0.182C0.451,-0.192 0.443,-0.2 0.433,-0.207C0.423,-0.214 0.411,-0.219 0.398,-0.223C0.385,-0.226 0.37,-0.229 0.354,-0.231L0.274,-0.242C0.254,-0.245 0.234,-0.249 0.214,-0.254C0.193,-0.259 0.175,-0.266 0.159,-0.276C0.142,-0.286 0.129,-0.299 0.119,-0.316C0.108,-0.333 0.103,-0.354 0.103,-0.38C0.103,-0.405 0.108,-0.427 0.118,-0.446C0.128,-0.465 0.142,-0.48 0.16,-0.492C0.178,-0.504 0.199,-0.513 0.224,-0.519C0.248,-0.525 0.274,-0.528 0.302,-0.528C0.35,-0.528 0.391,-0.52 0.424,-0.505C0.456,-0.489 0.484,-0.469 0.507,-0.446L0.469,-0.41C0.462,-0.418 0.453,-0.426 0.444,-0.435C0.434,-0.443 0.422,-0.45 0.409,-0.457C0.395,-0.464 0.379,-0.469 0.361,-0.474C0.343,-0.478 0.322,-0.48 0.299,-0.48C0.255,-0.48 0.221,-0.472 0.197,-0.456C0.172,-0.44 0.16,-0.416 0.16,-0.384C0.16,-0.368 0.163,-0.355 0.169,-0.345C0.174,-0.334 0.182,-0.326 0.192,-0.319C0.202,-0.312 0.214,-0.307 0.227,-0.304C0.24,-0.3 0.255,-0.297 0.27,-0.295L0.351,-0.283C0.371,-0.28 0.391,-0.276 0.412,-0.271C0.432,-0.266 0.45,-0.258 0.467,-0.248C0.483,-0.238 0.496,-0.225 0.506,-0.209C0.516,-0.192 0.521,-0.171 0.521,-0.145C0.521,-0.119 0.516,-0.096 0.506,-0.077C0.495,-0.058 0.481,-0.041 0.463,-0.028C0.444,-0.015 0.422,-0.005 0.396,0.002C0.37,0.009 0.342,0.012 0.311,0.012Z" style="fill:white;fill-rule:nonzero;"/>
            </g>
            <g transform="matrix(175,0,0,175,1969.97,817.598)">
                <path d="M0.311,0.012C0.259,0.012 0.214,0.003 0.176,-0.015C0.137,-0.032 0.104,-0.057 0.076,-0.089L0.115,-0.123C0.14,-0.094 0.169,-0.072 0.2,-0.058C0.231,-0.043 0.269,-0.036 0.312,-0.036C0.357,-0.036 0.394,-0.045 0.423,-0.062C0.451,-0.079 0.465,-0.106 0.465,-0.142C0.465,-0.158 0.462,-0.171 0.457,-0.182C0.451,-0.192 0.443,-0.2 0.433,-0.207C0.423,-0.214 0.411,-0.219 0.398,-0.223C0.385,-0.226 0.37,-0.229 0.354,-0.231L0.274,-0.242C0.254,-0.245 0.234,-0.249 0.214,-0.254C0.193,-0.259 0.175,-0.266 0.159,-0.276C0.142,-0.286 0.129,-0.299 0.119,-0.316C0.108,-0.333 0.103,-0.354 0.103,-0.38C0.103,-0.405 0.108,-0.427 0.118,-0.446C0.128,-0.465 0.142,-0.48 0.16,-0.492C0.178,-0.504 0.199,-0.513 0.224,-0.519C0.248,-0.525 0.274,-0.528 0.302,-0.528C0.35,-0.528 0.391,-0.52 0.424,-0.505C0.456,-0.489 0.484,-0.469 0.507,-0.446L0.469,-0.41C0.462,-0.418 0.453,-0.426 0.444,-0.435C0.434,-0.443 0.422,-0.45 0.409,-0.457C0.395,-0.464 0.379,-0.469 0.361,-0.474C0.343,-0.478 0.322,-0.48 0.299,-0.48C0.255,-0.48 0.221,-0.472 0.197,-0.456C0.172,-0.44 0.16,-0.416 0.16,-0.384C0.16,-0.368 0.163,-0.355 0.169,-0.345C0.174,-0.334 0.182,-0.326 0.192,-0.319C0.202,-0.312 0.214,-0.307 0.227,-0.304C0.24,-0.3 0.255,-0.297 0.27,-0.295L0.351,-0.283C0.371,-0.28 0.391,-0.276 0.412,-0.271C0.432,-0.266 0.45,-0.258 0.467,-0.248C0.483,-0.238 0.496,-0.225 0.506,-0.209C0.516,-0.192 0.521,-0.171 0.521,-0.145C0.521,-0.119 0.516,-0.096 0.506,-0.077C0.495,-0.058 0.481,-0.041 0.463,-0.028C0.444,-0.015 0.422,-0.005 0.396,0.002C0.37,0.009 0.342,0.012 0.311,0.012Z" style="fill:white;fill-rule:nonzero;"/>
            </g>
            <g transform="matrix(175,0,0,175,2070.59,817.598)">
                <path d="M0.118,-0.74L0.175,-0.74L0.175,-0.252L0.179,-0.252L0.28,-0.344L0.472,-0.516L0.543,-0.516L0.322,-0.314L0.569,-0L0.498,-0L0.278,-0.28L0.175,-0.189L0.175,-0L0.118,-0L0.118,-0.74Z" style="fill:white;fill-rule:nonzero;"/>
            </g>
            <g transform="matrix(175,0,0,175,2171.22,817.598)">
                <path d="M0.308,0.012C0.236,0.012 0.18,-0.012 0.139,-0.059C0.097,-0.106 0.077,-0.172 0.077,-0.257C0.077,-0.3 0.082,-0.338 0.093,-0.372C0.104,-0.405 0.119,-0.434 0.139,-0.457C0.158,-0.48 0.182,-0.497 0.21,-0.51C0.238,-0.522 0.269,-0.528 0.303,-0.528C0.338,-0.528 0.369,-0.522 0.396,-0.51C0.423,-0.497 0.447,-0.48 0.466,-0.457C0.485,-0.434 0.499,-0.407 0.509,-0.376C0.519,-0.345 0.524,-0.31 0.524,-0.272L0.524,-0.247L0.137,-0.247L0.137,-0.222C0.137,-0.167 0.152,-0.122 0.182,-0.089C0.212,-0.055 0.254,-0.038 0.308,-0.038C0.346,-0.038 0.379,-0.047 0.406,-0.064C0.433,-0.081 0.453,-0.107 0.468,-0.141L0.511,-0.114C0.496,-0.076 0.471,-0.046 0.436,-0.023C0.401,0.001 0.359,0.012 0.308,0.012ZM0.303,-0.48C0.278,-0.48 0.255,-0.475 0.235,-0.467C0.214,-0.458 0.197,-0.445 0.183,-0.429C0.168,-0.413 0.157,-0.394 0.149,-0.371C0.141,-0.348 0.137,-0.323 0.137,-0.296L0.137,-0.29L0.463,-0.29L0.463,-0.298C0.463,-0.354 0.449,-0.398 0.421,-0.431C0.392,-0.464 0.353,-0.48 0.303,-0.48Z" style="fill:white;fill-rule:nonzero;"/>
            </g>
            <g transform="matrix(175,0,0,175,2271.84,817.598)">
                <path d="M0.478,-0.516L0.535,-0.516L0.266,0.14C0.257,0.161 0.247,0.176 0.234,0.186C0.221,0.195 0.2,0.2 0.173,0.2L0.087,0.2L0.087,0.151L0.204,0.151L0.272,-0.014L0.065,-0.516L0.124,-0.516L0.299,-0.083L0.303,-0.083L0.478,-0.516Z" style="fill:white;fill-rule:nonzero;"/>
            </g>
            <g transform="matrix(175,0,0,175,2424.97,817.598)">
                <path d="M0.453,-0.328L0.147,-0.328L0.147,-0L0.087,-0L0.087,-0.698L0.147,-0.698L0.147,-0.38L0.453,-0.38L0.453,-0.698L0.513,-0.698L0.513,-0L0.453,-0L0.453,-0.328Z" style="fill:white;fill-rule:nonzero;"/>
            </g>
            <g transform="matrix(175,0,0,175,2525.59,817.598)">
                <path d="M0.3,0.012C0.229,0.012 0.174,-0.012 0.135,-0.059C0.095,-0.106 0.075,-0.173 0.075,-0.258C0.075,-0.343 0.095,-0.41 0.135,-0.457C0.174,-0.504 0.229,-0.528 0.3,-0.528C0.371,-0.528 0.426,-0.504 0.466,-0.457C0.505,-0.41 0.525,-0.343 0.525,-0.258C0.525,-0.173 0.505,-0.106 0.466,-0.059C0.426,-0.012 0.371,0.012 0.3,0.012ZM0.3,-0.038C0.351,-0.038 0.391,-0.054 0.42,-0.086C0.449,-0.118 0.464,-0.165 0.464,-0.226L0.464,-0.29C0.464,-0.351 0.449,-0.398 0.42,-0.43C0.391,-0.462 0.351,-0.478 0.3,-0.478C0.249,-0.478 0.209,-0.462 0.18,-0.43C0.151,-0.398 0.136,-0.351 0.136,-0.29L0.136,-0.226C0.136,-0.165 0.151,-0.118 0.18,-0.086C0.209,-0.054 0.249,-0.038 0.3,-0.038Z" style="fill:white;fill-rule:nonzero;"/>
            </g>
            <g transform="matrix(175,0,0,175,2626.22,817.598)">
                <path d="M0.084,-0.049L0.272,-0.049L0.272,-0.691L0.084,-0.691L0.084,-0.74L0.329,-0.74L0.329,-0.049L0.516,-0.049L0.516,-0L0.084,-0L0.084,-0.049Z" style="fill:white;fill-rule:nonzero;"/>
            </g>
            <g transform="matrix(175,0,0,175,2726.84,817.598)">
                <path d="M0.436,-0.082L0.433,-0.082C0.418,-0.054 0.398,-0.031 0.372,-0.014C0.345,0.003 0.312,0.012 0.273,0.012C0.208,0.012 0.158,-0.011 0.122,-0.058C0.086,-0.104 0.068,-0.171 0.068,-0.258C0.068,-0.345 0.086,-0.412 0.122,-0.459C0.158,-0.505 0.208,-0.528 0.273,-0.528C0.312,-0.528 0.345,-0.519 0.372,-0.502C0.398,-0.485 0.418,-0.462 0.433,-0.434L0.436,-0.434L0.436,-0.74L0.493,-0.74L0.493,-0L0.436,-0L0.436,-0.082ZM0.292,-0.039C0.311,-0.039 0.33,-0.042 0.347,-0.047C0.364,-0.052 0.38,-0.06 0.393,-0.07C0.406,-0.08 0.417,-0.092 0.425,-0.107C0.432,-0.122 0.436,-0.138 0.436,-0.156L0.436,-0.36C0.436,-0.378 0.432,-0.394 0.425,-0.409C0.417,-0.424 0.406,-0.436 0.393,-0.446C0.38,-0.456 0.364,-0.464 0.347,-0.469C0.33,-0.474 0.311,-0.477 0.292,-0.477C0.24,-0.477 0.2,-0.461 0.172,-0.428C0.143,-0.395 0.129,-0.351 0.129,-0.294L0.129,-0.222C0.129,-0.165 0.143,-0.121 0.172,-0.088C0.2,-0.055 0.24,-0.039 0.292,-0.039Z" style="fill:white;fill-rule:nonzero;"/>
            </g>
            <g transform="matrix(175,0,0,175,2827.47,817.598)">
                <path d="M0.308,0.012C0.236,0.012 0.18,-0.012 0.139,-0.059C0.097,-0.106 0.077,-0.172 0.077,-0.257C0.077,-0.3 0.082,-0.338 0.093,-0.372C0.104,-0.405 0.119,-0.434 0.139,-0.457C0.158,-0.48 0.182,-0.497 0.21,-0.51C0.238,-0.522 0.269,-0.528 0.303,-0.528C0.338,-0.528 0.369,-0.522 0.396,-0.51C0.423,-0.497 0.447,-0.48 0.466,-0.457C0.485,-0.434 0.499,-0.407 0.509,-0.376C0.519,-0.345 0.524,-0.31 0.524,-0.272L0.524,-0.247L0.137,-0.247L0.137,-0.222C0.137,-0.167 0.152,-0.122 0.182,-0.089C0.212,-0.055 0.254,-0.038 0.308,-0.038C0.346,-0.038 0.379,-0.047 0.406,-0.064C0.433,-0.081 0.453,-0.107 0.468,-0.141L0.511,-0.114C0.496,-0.076 0.471,-0.046 0.436,-0.023C0.401,0.001 0.359,0.012 0.308,0.012ZM0.303,-0.48C0.278,-0.48 0.255,-0.475 0.235,-0.467C0.214,-0.458 0.197,-0.445 0.183,-0.429C0.168,-0.413 0.157,-0.394 0.149,-0.371C0.141,-0.348 0.137,-0.323 0.137,-0.296L0.137,-0.29L0.463,-0.29L0.463,-0.298C0.463,-0.354 0.449,-0.398 0.421,-0.431C0.392,-0.464 0.353,-0.48 0.303,-0.48Z" style="fill:white;fill-rule:nonzero;"/>
            </g>
            <g transform="matrix(175,0,0,175,2928.09,817.598)">
                <path d="M0.078,-0.049L0.24,-0.049L0.24,-0.467L0.078,-0.467L0.078,-0.516L0.297,-0.516L0.297,-0.398L0.301,-0.398C0.312,-0.434 0.332,-0.463 0.36,-0.484C0.387,-0.505 0.424,-0.516 0.469,-0.516L0.558,-0.516L0.558,-0.46L0.452,-0.46C0.405,-0.46 0.368,-0.446 0.34,-0.419C0.311,-0.391 0.297,-0.354 0.297,-0.307L0.297,-0.049L0.507,-0.049L0.507,-0L0.078,-0L0.078,-0.049Z" style="fill:white;fill-rule:nonzero;"/>
            </g>
        </g>
        <g id="Layer12" transform="matrix(0.00908503,0,0,0.00908503,3084.41,796.003)">
            <g transform="matrix(114.3,55.8846,-55.8846,114.3,-360379,-196606)">
                <path d="M3254.45,445.781L3254.81,445.391C3255.08,446.837 3254.86,448.539 3254.93,450.025C3255.08,453.564 3255.39,457.041 3255.95,460.54C3257.93,472.94 3263.01,484.183 3268.56,495.336L3273.87,505.799L3274.98,501.492C3277.41,506.005 3279.15,511.133 3280.22,516.138C3280.86,519.117 3281.31,521.939 3281.28,524.996C3281.83,524.701 3282.33,524.16 3282.8,523.745L3285.33,521.566C3287.97,530.272 3287.13,540.377 3284.29,548.924L3290.86,544.421C3292.01,551.174 3291.45,558.68 3289.53,565.223C3288.91,567.343 3288.28,569.278 3287.17,571.198C3288.11,571.014 3289.05,570.586 3289.95,570.263C3291.32,569.773 3292.75,569.317 3294.08,568.726C3292.86,578.108 3290.23,587.624 3285.09,595.666L3292.37,593.461C3291.31,599.002 3289.6,604.135 3287.06,609.181C3285.29,612.683 3283.5,615.624 3280.64,618.346L3287.97,617.914C3286.25,622.528 3283.39,627.01 3280.47,630.952C3277.99,634.298 3275.36,637.489 3272.03,640.012L3278.31,639.524C3272.58,649.996 3263.84,658.537 3254.05,665.225C3245.98,670.746 3237.34,675.022 3227.93,677.769C3220.93,679.81 3213.82,681.294 3206.58,682.183C3198.28,683.201 3189.95,683.422 3181.6,683.767L3185.09,675.754L3186.67,671.944L3196.49,644.723L3197.52,641.941L3202.02,627.447L3203.75,621.361L3206.41,612.403C3206.77,611.119 3207.24,609.809 3207.41,608.486L3208.49,605.102L3217.31,572.368C3217.57,571.352 3217.8,570.338 3218.22,569.377L3222.24,554.261L3225.42,542.753L3226.95,537.003C3227.13,536.317 3227.29,535.176 3227.64,534.577C3227.85,534.202 3228.64,533.753 3229.02,533.492L3231.71,531.518L3234.82,528.89C3243.71,521.203 3250.31,512.188 3255.6,501.727L3257.27,498.379C3257.5,497.903 3257.84,497.359 3257.88,496.834C3257.54,497.092 3257.32,497.784 3257.12,498.187L3255.43,501.398C3253.68,504.436 3251.77,507.482 3249.66,510.286C3243.71,518.204 3236.51,525.681 3228.68,531.771L3230.75,522.998L3231.61,519.727C3231.93,518.717 3232.35,517.773 3232.31,516.696C3232.29,516.498 3232.51,516.052 3232.59,515.834L3233.44,513.312L3237.99,499.75L3249.04,464.536L3252.92,452.284C3253.34,450.979 3254.06,449.596 3254.37,448.295C3254.56,447.479 3254.62,446.603 3254.45,445.781Z" style="fill:rgb(42,105,40);fill-rule:nonzero;stroke:rgb(42,105,33);stroke-width:0.24px;"/>
            </g>
            <g transform="matrix(114.3,55.8846,-55.8846,114.3,-360379,-196606)">
                <path d="M3218.22,569.377L3218.42,569.334C3219.17,569.146 3220.13,568.361 3220.8,567.935L3227.9,563.137C3234.69,558.304 3241.45,553.381 3247.65,547.795C3255.77,540.469 3262.96,531.923 3268.19,522.286L3270.11,518.463L3270.23,518.686C3266.27,527.85 3261.1,536.065 3254.79,543.789C3247.62,552.561 3239.65,560.1 3230.01,566.127C3226.69,568.206 3223.1,570.247 3219.45,571.703L3217.31,572.368C3217.57,571.352 3217.8,570.338 3218.22,569.377Z" style="fill:rgb(42,105,40);fill-rule:nonzero;stroke:rgb(42,105,33);stroke-width:0.24px;stroke-miterlimit:2;"/>
            </g>
            <g transform="matrix(114.3,55.8846,-55.8846,114.3,-360379,-196606)">
                <path d="M3208.49,605.102C3217.29,600.949 3226.1,596.572 3234.36,591.411C3240.34,587.675 3245.97,583.549 3251.37,579.017C3259.52,572.169 3266.76,564.426 3272.21,555.233L3272.34,555.436C3269.98,560.168 3267.01,564.463 3263.86,568.682C3250.71,586.262 3232.88,600.148 3211.98,607.181L3207.41,608.486L3208.49,605.102Z" style="fill:rgb(42,105,40);fill-rule:nonzero;stroke:rgb(42,105,33);stroke-width:0.24px;stroke-miterlimit:2;"/>
            </g>
            <g transform="matrix(114.3,55.8846,-55.8846,114.3,-360379,-196606)">
                <path d="M3186.67,671.944C3193.18,670.66 3199.51,668.525 3205.76,666.306C3216.02,662.66 3226.3,658.168 3235.67,652.597L3244.63,646.705C3249.58,643.321 3254.32,639.792 3258.82,635.803C3262.42,632.607 3265.79,629.095 3269.06,625.563L3269.17,625.786C3255.23,642.827 3238.01,656.932 3217.95,666.175C3214.34,667.842 3210.72,669.479 3206.93,670.726C3199.86,673.055 3192.38,674.332 3185.09,675.754L3186.67,671.944Z" style="fill:rgb(42,105,40);fill-rule:nonzero;stroke:rgb(42,105,33);stroke-width:0.24px;stroke-miterlimit:2;"/>
            </g>
            <g transform="matrix(114.3,55.8846,-55.8846,114.3,-360379,-196606)">
                <path d="M3197.52,641.941L3197.74,641.911C3198.73,641.755 3200.1,640.863 3201.03,640.433L3211.46,635.528C3220.01,631.364 3228.63,627.202 3236.82,622.363C3247.05,616.318 3256.81,609.031 3265.31,600.716C3268.38,597.712 3271.22,594.484 3274.01,591.226L3274.13,591.436L3266.99,600.395C3252.8,616.817 3235.39,630.353 3215.42,638.987C3209.65,641.48 3203.49,643.95 3197.21,644.675L3196.49,644.723L3197.52,641.941Z" style="fill:rgb(42,105,40);fill-rule:nonzero;stroke:rgb(42,105,33);stroke-width:0.24px;stroke-miterlimit:2;"/>
            </g>
            <g transform="matrix(114.3,55.8846,-55.8846,114.3,-360379,-196606)">
                <path d="M3254.45,445.781C3254.62,446.603 3254.56,447.479 3254.37,448.295C3254.06,449.596 3253.34,450.979 3252.92,452.284L3249.04,464.536L3237.99,499.75L3233.44,513.312L3232.59,515.834C3232.51,516.052 3232.29,516.498 3232.31,516.696C3232.35,517.773 3231.93,518.717 3231.61,519.727L3230.75,522.998L3228.68,531.771C3236.51,525.681 3243.71,518.204 3249.66,510.286C3251.77,507.482 3253.68,504.436 3255.43,501.398L3257.12,498.187C3257.32,497.784 3257.54,497.092 3257.88,496.834C3257.84,497.359 3257.5,497.903 3257.27,498.379L3255.6,501.727C3250.31,512.188 3243.71,521.203 3234.82,528.89L3231.71,531.518L3229.02,533.492C3228.64,533.753 3227.85,534.202 3227.64,534.577C3227.29,535.176 3227.13,536.317 3226.95,537.003L3225.42,542.753L3222.24,554.261L3218.22,569.377C3217.8,570.338 3217.57,571.352 3217.31,572.368L3208.49,605.102L3207.41,608.486C3207.24,609.809 3206.77,611.119 3206.41,612.403L3203.75,621.361L3202.02,627.447L3197.52,641.941L3196.49,644.723L3186.67,671.944L3185.09,675.754L3181.6,683.767C3177.53,692.456 3173.22,701 3167.99,709.066C3164.92,713.815 3161.47,718.347 3157.9,722.732L3154.34,716.742C3156.69,714.643 3158.7,712.145 3160.63,709.668C3167.47,700.927 3172.56,691.322 3177.25,681.314L3160.22,669.212C3146.27,657.313 3134.66,642.353 3128.91,624.76C3127.32,619.903 3126.15,615.143 3125.74,610.036L3130.32,612.897C3130.39,612.807 3129.79,611.202 3129.69,610.91C3128.62,607.848 3127.64,604.613 3127.13,601.411C3126.59,598.017 3126.52,594.501 3126.73,591.075C3126.84,589.218 3126.97,587.27 3127.51,585.488L3132.13,589.991C3130.26,579.889 3131.47,570.212 3134.61,560.491C3135.16,560.845 3135.79,562.085 3136.22,562.658L3138.85,565.829C3138.9,564.224 3138.6,562.629 3138.7,560.986C3139.03,555.306 3140.53,550 3142.83,544.813C3143.77,542.692 3144.79,540.57 3146.06,538.625L3148.76,545.456C3148.98,543.911 3149.15,542.341 3149.49,540.82C3150.8,535.12 3153.27,529.676 3156.51,524.823L3161.24,518.38C3161.39,520.99 3161.99,523.699 3162.66,526.222C3163.33,524.341 3163.94,522.388 3164.75,520.566C3168,513.288 3172.94,506.903 3178.81,501.549C3178.91,504.048 3179.04,506.324 3179.67,508.756C3180.28,508.098 3180.69,506.872 3181.12,506.055C3181.74,504.853 3182.43,503.691 3183.17,502.557C3187.15,496.464 3192.07,491.716 3197.74,487.224L3198.4,492.506C3203.96,486.123 3210.06,480.553 3217.59,476.604L3216.24,480.385C3220,478.68 3223.59,476.38 3227,474.075C3233.48,469.707 3239.85,464.739 3245.06,458.892C3248.64,454.866 3251.68,450.393 3254.45,445.781Z" style="fill:rgb(42,105,40);fill-rule:nonzero;stroke:rgb(42,105,33);stroke-width:4.81px;stroke-linecap:round;stroke-miterlimit:2;"/>
            </g>
            <g transform="matrix(114.3,55.8846,-55.8846,114.3,-360379,-196606)">
                <path d="M3214.25,572.038L3207.55,560.03C3202.11,549.172 3198.23,538.029 3195.71,526.156C3194.83,522.016 3194.05,517.903 3193.6,513.69C3193.21,510.036 3193.24,506.37 3193,502.711L3193.16,502.709C3193.37,505.85 3193.64,509.042 3194.15,512.151C3196.42,526.128 3201.55,539.257 3207.38,552.081C3209.91,557.647 3212.48,563.253 3215.44,568.604C3215.06,569.735 3214.76,570.961 3214.25,572.038Z" style="fill:rgb(42,105,40);fill-rule:nonzero;stroke:rgb(42,105,33);stroke-width:0.24px;stroke-miterlimit:2;"/>
            </g>
            <g transform="matrix(114.3,55.8846,-55.8846,114.3,-360379,-196606)">
                <path d="M3203.06,608.849C3199.68,605.238 3196.83,601.129 3194.08,597.035C3182.54,579.85 3174.87,559.983 3172.48,539.386C3172.07,535.83 3171.64,532.166 3171.7,528.586C3172.01,529.39 3171.96,530.463 3172.03,531.325L3172.46,535.328C3172.98,539.107 3173.72,542.94 3174.74,546.615C3179.75,564.571 3188.37,581.153 3198.27,596.858L3202.06,602.812C3202.66,603.761 3203.19,604.776 3203.84,605.683L3203.93,605.803C3203.64,606.783 3203.23,607.843 3203.06,608.849Z" style="fill:rgb(42,105,40);fill-rule:nonzero;stroke:rgb(42,105,33);stroke-width:0.24px;stroke-miterlimit:2;"/>
            </g>
            <g transform="matrix(114.3,55.8846,-55.8846,114.3,-360379,-196604)">
                <path d="M3181.16,672.64C3179.29,671.197 3177.49,669.241 3175.86,667.53C3162.97,653.998 3153.57,637.017 3147.19,619.533C3145.5,614.918 3143.88,610.313 3142.63,605.557L3141.06,599.395C3140.81,598.372 3140.43,597.16 3140.46,596.102L3140.53,596.311C3141.07,597.788 3141.31,599.39 3141.75,600.904C3142.61,603.863 3143.66,606.794 3144.79,609.661C3152.22,628.539 3162.73,646.114 3175.65,661.732L3182.49,669.731L3181.16,672.64Z" style="fill:rgb(42,105,40);fill-rule:nonzero;stroke:rgb(42,105,33);stroke-width:0.24px;stroke-miterlimit:2;"/>
            </g>
            <g transform="matrix(114.3,55.8846,-55.8846,114.3,-360379,-196606)">
                <path d="M3192.39,642.842C3186.97,637.737 3182.16,631.612 3177.97,625.467C3167.89,610.678 3160.65,594.595 3156.45,577.186C3154.88,570.671 3153.66,563.855 3153.25,557.161C3153.57,557.865 3153.55,558.837 3153.68,559.605L3154.78,565.392C3156.03,570.995 3157.56,576.547 3159.5,581.953C3162.35,589.92 3166.12,597.538 3170.19,604.942L3181.7,624.08L3193.18,640.684L3192.39,642.842Z" style="fill:rgb(42,105,40);fill-rule:nonzero;stroke:rgb(42,105,33);stroke-width:0.24px;stroke-miterlimit:2;"/>
            </g>
            <g transform="matrix(114.3,55.8846,-55.8846,114.3,-360379,-196606)">
                <path d="M3215.44,568.604L3219.48,555.521L3223.81,542.079L3225.86,536.015C3226.03,535.519 3226.48,534.515 3226.48,534.008C3226.48,533.566 3225.88,532.537 3225.72,532.075L3222.64,522.916C3219.34,512.262 3217.93,501.412 3218.15,490.278C3218.18,488.839 3217.98,486.403 3218.49,485.086C3218.81,486.964 3218.53,489.166 3218.61,491.093C3218.74,494.036 3219.1,497.024 3219.46,499.951C3220.77,510.713 3223.93,521.321 3227.2,531.628L3232.31,516.696C3232.35,517.773 3231.93,518.717 3231.61,519.727L3230.75,522.998L3228.68,531.771C3236.51,525.681 3243.71,518.204 3249.66,510.286C3251.77,507.482 3253.68,504.436 3255.43,501.398L3257.12,498.187C3257.32,497.784 3257.54,497.092 3257.88,496.834C3257.84,497.359 3257.5,497.903 3257.27,498.379L3255.6,501.727C3250.31,512.188 3243.71,521.203 3234.82,528.89L3231.71,531.518L3229.02,533.492C3228.64,533.753 3227.85,534.202 3227.64,534.577C3227.29,535.176 3227.13,536.317 3226.95,537.003L3225.42,542.753L3222.24,554.261L3218.22,569.377C3217.8,570.338 3217.57,571.352 3217.31,572.368L3208.49,605.102L3207.41,608.486C3207.24,609.809 3206.77,611.119 3206.41,612.403L3203.75,621.361L3202.02,627.447L3197.52,641.941L3196.49,644.723L3186.67,671.944L3185.09,675.754L3181.6,683.767C3177.53,692.456 3173.22,701 3167.99,709.066C3164.92,713.815 3161.47,718.347 3157.9,722.732L3154.34,716.742C3156.69,714.643 3158.7,712.145 3160.63,709.668C3167.47,700.927 3172.56,691.322 3177.25,681.314C3178.85,678.71 3179.92,675.443 3181.16,672.64L3182.49,669.731L3192.39,642.842L3193.18,640.684L3203.06,608.849C3203.23,607.843 3203.64,606.783 3203.93,605.803C3204.1,604.849 3204.53,603.844 3204.83,602.919L3206.42,597.736L3210.07,585.436L3214.25,572.038C3214.76,570.961 3215.06,569.735 3215.44,568.604Z" style="fill:rgb(42,105,40);stroke:rgb(42,105,33);stroke-width:0.24px;stroke-linecap:round;stroke-linejoin:miter;"/>
            </g>
        </g>
        <g id="Layer5" transform="matrix(0.0201487,0.0197004,-0.0213148,0.0217999,3182.79,420.205)">
            <g>
                <g transform="matrix(172.677,9.53891e-14,1.90122e-14,172.677,9206.48,24273.9)">
                    <path d="M7,5.21C6.581,5.205 6.24,4.859 6.24,4.44C6.24,4.201 6.351,3.976 6.54,3.83C9.299,1.878 12.623,0.884 16,1C18.66,1 22.48,1.45 25.5,3.62C25.842,3.865 25.923,4.347 25.68,4.69C25.428,5.03 24.944,5.106 24.6,4.86C22.036,3.23 19.036,2.418 16,2.53C12.969,2.427 9.985,3.312 7.5,5.05C7.359,5.163 7.181,5.22 7,5.21Z" style="fill:white;fill-opacity:0.9;fill-rule:nonzero;stroke:white;stroke-opacity:0.9;stroke-width:0.2px;stroke-miterlimit:2;"/>
                </g>
                <g transform="matrix(172.677,9.53891e-14,1.90122e-14,172.677,9206.48,24273.9)">
                    <path d="M28.23,12.26C27.979,12.258 27.745,12.135 27.6,11.93C25.87,9.49 22.78,6.24 16,6.24C11.429,6.125 7.08,8.256 4.37,11.94C4.122,12.278 3.641,12.355 3.3,12.11C3.096,11.968 2.974,11.735 2.974,11.486C2.974,11.309 3.036,11.137 3.15,11C6.154,6.943 10.953,4.593 16,4.71C21.61,4.71 25.81,6.79 28.84,11.05C29.08,11.396 28.995,11.878 28.65,12.12C28.526,12.206 28.38,12.254 28.23,12.26Z" style="fill:white;fill-rule:nonzero;stroke:white;stroke-width:0.2px;stroke-miterlimit:2;"/>
                </g>
                <g transform="matrix(172.677,9.53891e-14,1.90122e-14,172.677,9206.48,24273.9)">
                    <path d="M12.28,31C11.963,30.998 11.678,30.804 11.56,30.51C11.521,30.417 11.5,30.318 11.5,30.217C11.5,29.9 11.701,29.616 12,29.51C16.37,27.83 19,24.39 19,20.3C19.005,20.231 19.008,20.162 19.008,20.092C19.008,18.556 17.744,17.292 16.208,17.292C16.138,17.292 16.069,17.295 16,17.3C14.14,17.3 13.24,18.3 13,20.65C12.769,22.92 10.757,24.625 8.48,24.48C8.459,24.48 8.439,24.48 8.418,24.48C6.076,24.48 4.148,22.553 4.148,20.21C4.148,20.104 4.152,19.997 4.16,19.89C4.274,13.496 9.606,8.318 16,8.39C22.557,8.39 27.962,13.763 28,20.32C27.929,22.552 27.459,24.754 26.61,26.82C26.442,27.201 25.997,27.383 25.61,27.23C25.326,27.113 25.139,26.835 25.139,26.527C25.139,26.425 25.16,26.324 25.2,26.23C25.968,24.35 26.398,22.349 26.47,20.32C26.443,14.599 21.721,9.909 16,9.92C15.933,9.919 15.866,9.918 15.798,9.918C10.281,9.918 5.716,14.403 5.62,19.92C5.61,20.016 5.605,20.113 5.605,20.21C5.605,21.73 6.855,22.98 8.375,22.98C8.387,22.98 8.398,22.98 8.41,22.98C8.5,22.989 8.591,22.993 8.681,22.993C10.091,22.993 11.283,21.905 11.41,20.5C11.77,17.39 13.3,15.81 15.97,15.81C16.042,15.806 16.115,15.805 16.188,15.805C18.552,15.805 20.498,17.75 20.498,20.115C20.498,20.2 20.495,20.285 20.49,20.37C20.49,25.11 17.49,29.09 12.49,31C12.42,31.008 12.35,31.008 12.28,31Z" style="fill:white;fill-rule:nonzero;stroke:white;stroke-width:0.2px;stroke-miterlimit:2;"/>
                </g>
                <g transform="matrix(172.677,9.53891e-14,1.90122e-14,172.677,9206.48,24273.9)">
                    <path d="M19.77,30.28C19.579,30.277 19.394,30.206 19.25,30.08C19.106,29.937 19.025,29.743 19.025,29.54C19.025,29.337 19.106,29.143 19.25,29C21.499,26.669 22.767,23.559 22.79,20.32C22.79,18.76 22.31,13.67 16.09,13.67C14.26,13.606 12.479,14.28 11.15,15.54C9.961,16.716 9.3,18.327 9.32,20C9.315,20.419 8.969,20.76 8.55,20.76C8.547,20.76 8.543,20.76 8.54,20.76C8.123,20.76 7.78,20.417 7.78,20C7.78,20 7.78,20 7.78,20C7.749,17.931 8.549,15.934 10,14.46C11.609,12.916 13.771,12.08 16,12.14C22.08,12.14 24.24,16.54 24.24,20.32C24.227,23.926 22.83,27.392 20.34,30C20.201,30.173 19.992,30.276 19.77,30.28Z" style="fill:white;fill-rule:nonzero;stroke:white;stroke-width:0.2px;stroke-miterlimit:2;"/>
                </g>
                <g transform="matrix(172.677,9.53891e-14,1.90122e-14,172.677,9206.48,24273.9)">
                    <path d="M8.66,27.74C8.139,27.739 7.618,27.709 7.1,27.65C6.715,27.607 6.42,27.278 6.42,26.89C6.42,26.47 6.765,26.125 7.185,26.125C7.213,26.125 7.242,26.127 7.27,26.13C9.76,26.41 11.72,25.97 13.11,24.81C14.404,23.653 15.171,22.015 15.23,20.28C15.249,19.883 15.581,19.567 15.979,19.567C16.003,19.567 16.026,19.568 16.05,19.57C16.466,19.602 16.787,19.963 16.77,20.38C16.685,22.541 15.715,24.574 14.09,26C12.547,27.211 10.619,27.828 8.66,27.74Z" style="fill:white;fill-rule:nonzero;stroke:white;stroke-width:0.2px;stroke-miterlimit:2;"/>
                </g>
            </g>
        </g>
    </g>
</svg>
